<?xml version="1.0" encoding="utf-8"?>
<!-- Generator: Adobe Illustrator 16.0.0, SVG Export Plug-In . SVG Version: 6.00 Build 0)  -->
<!DOCTYPE svg PUBLIC "-//W3C//DTD SVG 1.1//EN" "http://www.w3.org/Graphics/SVG/1.1/DTD/svg11.dtd">
<svg version="1.1" id="Layer_1" xmlns="http://www.w3.org/2000/svg" xmlns:xlink="http://www.w3.org/1999/xlink" x="0px" y="0px"
	 width="280px" height="60px" viewBox="0 0 280 60" enable-background="new 0 0 280 60" xml:space="preserve">
<g>
	<g enable-background="new    ">
		<path fill="#231F20" stroke="#231F20" stroke-width="0.6" stroke-miterlimit="10" d="M10.264,51.077
			c-0.713,0.714-1.66,1.069-2.597,1.069c-2.404,0-3.657-1.682-3.667-3.605c-0.021-1.905,1.223-3.688,3.667-3.688
			c0.937,0,1.884,0.355,2.597,1.068l-0.377,0.326c-0.611-0.611-1.416-0.906-2.22-0.906c-2.078,0-3.148,1.467-3.138,3.18
			c0.021,1.67,1.08,3.115,3.138,3.115c0.805,0,1.62-0.306,2.231-0.906L10.264,51.077z"/>
		<path fill="#231F20" stroke="#231F20" stroke-width="0.6" stroke-miterlimit="10" d="M14.887,49.561
			c0-1.6,1.141-2.619,2.557-2.619s2.557,1.021,2.557,2.619c0,1.6-1.141,2.576-2.557,2.576S14.887,51.159,14.887,49.561z
			 M19.512,49.561c0-1.305-0.927-2.148-2.068-2.148c-1.141,0-2.067,0.845-2.067,2.148c0,1.305,0.927,2.088,2.067,2.088
			C18.585,51.648,19.512,50.864,19.512,49.561z"/>
		<path fill="#231F20" stroke="#231F20" stroke-width="0.6" stroke-miterlimit="10" d="M32.376,52.064V49.05
			c0-0.967-0.652-1.649-1.61-1.649s-1.619,0.714-1.619,1.682v2.984h-0.5v-2.984c0-0.968-0.662-1.67-1.62-1.67
			s-1.609,0.702-1.609,1.67v2.984h-0.5v-5.031h0.469l0.01,0.835c0.346-0.663,0.988-0.938,1.64-0.938
			c0.764,0,1.569,0.348,1.864,1.243c0.306-0.825,1.09-1.243,1.864-1.243c1.232,0,2.109,0.866,2.109,2.118v3.017h-0.498V52.064z"/>
		<path fill="#231F20" stroke="#231F20" stroke-width="0.6" stroke-miterlimit="10" d="M37.947,54.164v-7.13h0.489v1.19
			c0.397-0.764,1.202-1.264,2.18-1.264c1.365,0.051,2.445,0.969,2.445,2.587c0,1.691-1.141,2.608-2.557,2.608
			c-0.856,0-1.65-0.417-2.078-1.254v3.261L37.947,54.164L37.947,54.164z M42.561,49.549c0-1.416-0.917-2.107-2.058-2.107
			c-1.172,0-2.038,0.888-2.038,2.119c0,1.232,0.887,2.119,2.038,2.119C41.644,51.68,42.561,50.965,42.561,49.549z"/>
		<path fill="#231F20" stroke="#231F20" stroke-width="0.6" stroke-miterlimit="10" d="M48.549,44.936v7.131H48.05v-7.131H48.549z"
			/>
		<path fill="#231F20" stroke="#231F20" stroke-width="0.6" stroke-miterlimit="10" d="M53.428,49.549
			c0-1.507,1.141-2.597,2.557-2.597s2.679,0.864,2.485,2.831h-4.533c0.102,1.182,1.008,1.865,2.048,1.865
			c0.662,0,1.436-0.267,1.813-0.766l0.356,0.286c-0.489,0.642-1.365,0.967-2.169,0.967C54.569,52.137,53.428,51.148,53.428,49.549z
			 M58.022,49.346c-0.01-1.242-0.825-1.935-2.037-1.935c-1.04,0-1.936,0.702-2.048,1.935H58.022z"/>
		<path fill="#231F20" stroke="#231F20" stroke-width="0.6" stroke-miterlimit="10" d="M64.469,45.516v1.52h1.711v0.417h-1.711
			v3.065c0,0.683,0.143,1.162,0.927,1.162c0.244,0,0.52-0.082,0.774-0.203l0.173,0.405c-0.316,0.153-0.632,0.255-0.947,0.255
			c-1.07,0-1.416-0.632-1.416-1.619v-3.065h-1.07v-0.417h1.07v-1.467L64.469,45.516z"/>
		<path fill="#231F20" stroke="#231F20" stroke-width="0.6" stroke-miterlimit="10" d="M70.814,49.549
			c0-1.507,1.141-2.597,2.557-2.597s2.679,0.864,2.485,2.831h-4.533c0.102,1.182,1.008,1.865,2.047,1.865
			c0.662,0,1.437-0.267,1.813-0.766l0.357,0.286c-0.489,0.642-1.365,0.967-2.17,0.967C71.955,52.137,70.814,51.148,70.814,49.549z
			 M75.408,49.346c-0.01-1.242-0.825-1.935-2.037-1.935c-1.04,0-1.936,0.702-2.047,1.935H75.408z"/>
		<path fill="#231F20" stroke="#231F20" stroke-width="0.6" stroke-miterlimit="10" d="M93.253,52.064l-0.785-1.752H88.21
			l-0.774,1.752h-0.591l3.199-7.131h0.601l3.199,7.131H93.253z M92.254,49.805l-1.915-4.34l-1.915,4.34H92.254z"/>
		<path fill="#231F20" stroke="#231F20" stroke-width="0.6" stroke-miterlimit="10" d="M102.175,52.064v-0.905
			c-0.388,0.692-1.09,0.978-1.793,0.987c-1.345,0-2.271-0.824-2.271-2.221v-2.902h0.499v2.893c0,1.143,0.703,1.753,1.792,1.742
			c1.039-0.01,1.763-0.794,1.763-1.833v-2.802h0.499v5.041H102.175z"/>
		<path fill="#231F20" stroke="#231F20" stroke-width="0.6" stroke-miterlimit="10" d="M108.896,45.516v1.52h1.712v0.417h-1.712
			v3.065c0,0.683,0.144,1.162,0.928,1.162c0.244,0,0.52-0.082,0.773-0.203l0.173,0.405c-0.315,0.153-0.632,0.255-0.946,0.255
			c-1.07,0-1.416-0.632-1.416-1.619v-3.065h-1.07v-0.417h1.07v-1.467L108.896,45.516z"/>
		<path fill="#231F20" stroke="#231F20" stroke-width="0.6" stroke-miterlimit="10" d="M115.292,49.561
			c0-1.6,1.141-2.619,2.557-2.619s2.558,1.021,2.558,2.619c0,1.6-1.142,2.576-2.558,2.576S115.292,51.159,115.292,49.561z
			 M119.917,49.561c0-1.305-0.927-2.148-2.068-2.148c-1.141,0-2.066,0.845-2.066,2.148c0,1.305,0.927,2.088,2.066,2.088
			C118.99,51.648,119.917,50.864,119.917,49.561z"/>
		<path fill="#231F20" stroke="#231F20" stroke-width="0.6" stroke-miterlimit="10" d="M136.611,46.311
			c-0.521-0.836-1.355-0.957-2.16-0.968c-0.834,0-2.159,0.306-2.159,1.446c0,0.906,0.978,1.121,2.18,1.344
			c1.375,0.266,2.801,0.512,2.801,2.049c-0.01,1.609-1.63,1.996-2.821,1.996c-1.11,0-2.373-0.458-2.923-1.548l0.488-0.245
			c0.438,0.866,1.559,1.295,2.435,1.295s2.271-0.244,2.271-1.509c0.011-1.069-1.172-1.304-2.344-1.526
			c-1.303-0.256-2.638-0.521-2.638-1.834c-0.03-1.509,1.538-1.978,2.709-1.978c1.019,0,1.904,0.163,2.607,1.213L136.611,46.311z"/>
		<path fill="#231F20" stroke="#231F20" stroke-width="0.6" stroke-miterlimit="10" d="M142.078,49.561
			c0-1.6,1.142-2.619,2.558-2.619s2.558,1.021,2.558,2.619c0,1.6-1.142,2.576-2.558,2.576S142.078,51.159,142.078,49.561z
			 M146.703,49.561c0-1.305-0.926-2.148-2.067-2.148s-2.067,0.845-2.067,2.148c0,1.305,0.926,2.088,2.067,2.088
			S146.703,50.864,146.703,49.561z"/>
		<path fill="#231F20" stroke="#231F20" stroke-width="0.6" stroke-miterlimit="10" d="M152.611,44.936v7.131h-0.498v-7.131H152.611
			z"/>
		<path fill="#231F20" stroke="#231F20" stroke-width="0.6" stroke-miterlimit="10" d="M161.828,52.064v-0.905
			c-0.389,0.692-1.09,0.978-1.793,0.987c-1.344,0-2.271-0.824-2.271-2.221v-2.902h0.499v2.893c0,1.143,0.703,1.753,1.793,1.742
			c1.039-0.01,1.763-0.794,1.763-1.833v-2.802h0.5v5.041H161.828z"/>
		<path fill="#231F20" stroke="#231F20" stroke-width="0.6" stroke-miterlimit="10" d="M168.551,45.516v1.52h1.711v0.417h-1.711
			v3.065c0,0.683,0.143,1.162,0.927,1.162c0.244,0,0.519-0.082,0.774-0.203l0.173,0.405c-0.315,0.153-0.632,0.255-0.947,0.255
			c-1.069,0-1.416-0.632-1.416-1.619v-3.065h-1.069v-0.417h1.069v-1.467L168.551,45.516z"/>
		<path fill="#231F20" stroke="#231F20" stroke-width="0.6" stroke-miterlimit="10" d="M175.843,45.395c0,0.528-0.806,0.528-0.806,0
			C175.037,44.863,175.843,44.863,175.843,45.395z M175.181,47.014v5.053h0.499v-5.053H175.181z"/>
		<path fill="#231F20" stroke="#231F20" stroke-width="0.6" stroke-miterlimit="10" d="M180.75,49.561
			c0-1.6,1.143-2.619,2.559-2.619s2.557,1.021,2.557,2.619c0,1.6-1.141,2.576-2.557,2.576S180.75,51.159,180.75,49.561z
			 M185.377,49.561c0-1.305-0.928-2.148-2.068-2.148c-1.143,0-2.068,0.845-2.068,2.148c0,1.305,0.928,2.088,2.068,2.088
			S185.377,50.864,185.377,49.561z"/>
		<path fill="#231F20" stroke="#231F20" stroke-width="0.6" stroke-miterlimit="10" d="M191.272,47.034v0.896
			c0.388-0.691,1.091-0.978,1.794-0.988c1.344,0,2.271,0.826,2.271,2.222v2.903h-0.5v-2.894c0-1.141-0.702-1.752-1.792-1.741
			c-1.04,0.01-1.763,0.795-1.763,1.834v2.801h-0.5v-5.031L191.272,47.034L191.272,47.034z"/>
		<path fill="#231F20" stroke="#231F20" stroke-width="0.6" stroke-miterlimit="10" d="M203.863,47.95
			c-0.511-0.448-1.01-0.529-1.568-0.529c-0.785-0.01-1.538,0.285-1.52,0.927c0.021,0.674,0.897,0.805,1.528,0.918
			c0.896,0.151,2.129,0.305,2.078,1.477c-0.031,1.109-1.183,1.406-2.068,1.406c-0.885,0-1.763-0.338-2.2-1.01l0.366-0.326
			c0.419,0.603,1.173,0.856,1.845,0.856c0.61,0,1.539-0.164,1.568-0.958c0.021-0.723-0.814-0.866-1.64-0.998
			c-0.979-0.164-1.946-0.347-1.956-1.355c-0.012-0.986,0.979-1.416,1.996-1.404c0.734,0,1.375,0.204,1.875,0.672L203.863,47.95z"/>
	</g>
	<path fill="#0060AE" d="M226.17,43.027h-12.538h-1.296v-1.293v-5.202c0-3.438,1.217-6.619,3.255-9.163
		c2.069-2.584,4.997-4.498,8.354-5.335l0.629,2.511c-2.8,0.698-5.237,2.295-6.963,4.443c-1.679,2.091-2.678,4.707-2.678,7.543v3.905
		h11.241v2.59H226.17z"/>
	<rect x="234.065" y="40.436" fill="#0060AE" width="22.619" height="2.592"/>
	<path fill="#0060AE" d="M266.354,22.023c3.368,0.832,6.305,2.744,8.383,5.331c2.045,2.541,3.265,5.73,3.265,9.178v5.198v1.293
		h-1.295h-8.683v-2.59h7.389v-3.905c0-2.839-1.006-5.463-2.688-7.559c-1.728-2.15-4.176-3.743-6.982-4.437L266.354,22.023z"/>
	<path fill="#0060AE" d="M236.637,41.939c-0.032,2.227-0.969,4.232-2.459,5.684c-1.49,1.443-3.53,2.336-5.778,2.336
		s-4.291-0.893-5.779-2.336c-1.488-1.451-2.429-3.459-2.455-5.684l2.579-0.033c0.021,1.508,0.664,2.875,1.679,3.861
		c1.019,0.988,2.421,1.6,3.977,1.6c1.554,0,2.957-0.611,3.978-1.6c1.022-0.986,1.655-2.352,1.679-3.861L236.637,41.939z"/>
	<path fill="#0060AE" d="M270.592,41.939c-0.029,2.227-0.966,4.232-2.458,5.684c-1.488,1.443-3.529,2.336-5.779,2.336
		c-2.246,0-4.289-0.893-5.777-2.336c-1.488-1.451-2.423-3.459-2.454-5.684l2.581-0.033c0.019,1.508,0.661,2.875,1.677,3.861
		c1.024,0.988,2.421,1.6,3.976,1.6c1.56,0,2.959-0.611,3.979-1.6c1.021-0.986,1.654-2.352,1.679-3.861L270.592,41.939z"/>
	<path fill="#00A551" d="M262.672,19.073c-5.168-4.081-11.517-6.16-17.863-6.16c-6.242,0-12.461,2.02-17.521,6.134l-4.347-5.346
		C229.292,8.534,237.05,6,244.809,6c7.834,0,15.693,2.59,22.132,7.674L262.672,19.073z"/>
	<path fill="#00A551" d="M111.708,23.385c0-2.592-0.045-4.818-0.181-6.865h3.5l0.137,4.319h0.182c1-2.956,3.41-4.82,6.092-4.82
		c0.455,0,0.773,0.046,1.138,0.136v3.774c-0.411-0.092-0.819-0.137-1.364-0.137c-2.82,0-4.819,2.137-5.366,5.138
		c-0.091,0.545-0.182,1.181-0.182,1.864v11.73h-3.956V23.385z"/>
	<path fill="#00A551" d="M144.669,27.341c0,8.138-5.638,11.685-10.957,11.685c-5.956,0-10.548-4.365-10.548-11.322
		c0-7.364,4.82-11.684,10.912-11.684C140.396,16.02,144.669,20.611,144.669,27.341 M127.21,27.568c0,4.819,2.773,8.458,6.683,8.458
		c3.819,0,6.685-3.593,6.685-8.548c0-3.728-1.865-8.457-6.594-8.457C129.257,19.021,127.21,23.384,127.21,27.568z"/>
	<path fill="#00A551" d="M160.536,38.525l-0.318-2.773h-0.138c-1.227,1.729-3.591,3.273-6.729,3.273
		c-4.455,0-6.729-3.137-6.729-6.32c0-5.318,4.728-8.229,13.23-8.184v-0.454c0-1.82-0.5-5.093-5.002-5.093
		c-2.045,0-4.183,0.637-5.729,1.636l-0.909-2.636c1.818-1.183,4.456-1.956,7.229-1.956c6.729,0,8.366,4.591,8.366,9.002v8.229
		c0,1.91,0.09,3.775,0.362,5.275H160.536z M159.944,27.295c-4.365-0.091-9.32,0.682-9.32,4.957c0,2.59,1.728,3.818,3.774,3.818
		c2.864,0,4.682-1.818,5.318-3.684c0.137-0.407,0.228-0.863,0.228-1.272V27.295z"/>
	<path fill="#00A551" d="M187.904,6.245v26.597c0,1.955,0.046,4.184,0.182,5.684h-3.592l-0.182-3.82h-0.091
		c-1.228,2.457-3.91,4.32-7.502,4.32c-5.319,0-9.411-4.502-9.411-11.185c-0.045-7.32,4.501-11.821,9.865-11.821
		c3.365,0,5.639,1.592,6.639,3.365h0.091V6.245H187.904z M183.903,25.476c0-0.5-0.046-1.181-0.183-1.681
		c-0.59-2.546-2.771-4.638-5.773-4.638c-4.138,0-6.593,3.638-6.593,8.501c0,4.456,2.183,8.138,6.502,8.138
		c2.683,0,5.138-1.772,5.864-4.772c0.137-0.546,0.183-1.092,0.183-1.728V25.476z"/>
	<path fill="#00A551" d="M192.631,34.434c1.183,0.771,3.273,1.592,5.274,1.592c2.909,0,4.274-1.455,4.274-3.275
		c0-1.909-1.138-2.954-4.093-4.045c-3.955-1.41-5.82-3.592-5.82-6.229c0-3.546,2.865-6.457,7.594-6.457
		c2.227,0,4.182,0.637,5.409,1.364l-1,2.91c-0.863-0.545-2.455-1.273-4.501-1.273c-2.363,0-3.682,1.364-3.682,3.001
		c0,1.818,1.318,2.636,4.183,3.728c3.818,1.455,5.773,3.365,5.773,6.638c0,3.865-3.001,6.594-8.229,6.594
		c-2.409,0-4.637-0.592-6.183-1.5L192.631,34.434z"/>
	<path fill="#0060AE" d="M90.679,32.417c2.196,1.376,4.362,2.066,6.5,2.066c2.75,0,4.129-0.776,4.129-2.336
		c0-1.089-1.092-1.994-3.267-2.744c-3.181-1.063-5.196-2.116-6.052-3.151c-0.856-1.037-1.289-2.361-1.289-3.974
		c0-2.138,0.871-3.813,2.612-5.03c1.75-1.215,3.987-1.821,6.73-1.821c1.915,0,3.822,0.302,5.736,0.907v4.785
		c-1.728-1.028-3.621-1.541-5.672-1.541c-1.087,0-1.959,0.202-2.621,0.612c-0.656,0.404-0.986,0.95-0.986,1.619
		c0,1.116,0.921,1.994,2.762,2.641c2.096,0.756,3.629,1.39,4.613,1.909c0.987,0.514,1.75,1.211,2.305,2.096
		c0.546,0.884,0.819,1.93,0.819,3.12c0,2.249-0.899,3.989-2.69,5.229c-1.792,1.237-4.152,1.856-7.096,1.856
		c-2.467,0-4.649-0.396-6.534-1.18V32.417z"/>
	<path fill="#0060AE" d="M68.927,32.417c2.196,1.376,4.362,2.066,6.498,2.066c2.751,0,4.132-0.776,4.132-2.336
		c0-1.089-1.093-1.994-3.268-2.744c-3.181-1.063-5.196-2.116-6.051-3.151c-0.856-1.037-1.289-2.361-1.289-3.974
		c0-2.138,0.872-3.813,2.613-5.03c1.75-1.215,3.988-1.821,6.729-1.821c1.915,0,3.822,0.302,5.736,0.907v4.785
		c-1.727-1.028-3.619-1.541-5.67-1.541c-1.086,0-1.958,0.202-2.621,0.612c-0.655,0.404-0.985,0.95-0.985,1.619
		c0,1.116,0.922,1.994,2.763,2.641c2.097,0.756,3.627,1.39,4.613,1.909c0.986,0.514,1.75,1.211,2.303,2.096
		c0.547,0.884,0.82,1.93,0.82,3.12c0,2.249-0.899,3.989-2.691,5.229c-1.792,1.237-4.151,1.856-7.095,1.856
		c-2.469,0-4.649-0.396-6.536-1.18L68.927,32.417z"/>
	<path fill="#0060AE" d="M63.929,18.514c-2.043-2.057-4.827-3.087-8.353-3.087c-3.656,0-6.557,1.05-8.688,3.152
		c-2.138,2.102-3.211,4.967-3.211,8.586c0,3.523,1.044,6.31,3.121,8.382c2.082,2.076,4.896,3.111,8.437,3.111
		c3.612,0,6.477-1.078,8.592-3.24c2.118-2.15,3.169-5.033,3.169-8.628C66.995,23.33,65.973,20.573,63.929,18.514 M55.418,34.063
		c-3.863,0-5.799-2.328-5.799-6.974c0-2.212,0.513-3.945,1.522-5.198c1.015-1.258,2.43-1.892,4.259-1.892
		c3.742,0,5.606,2.312,5.606,6.917C61.003,31.68,59.148,34.063,55.418,34.063z"/>
	<path fill="#0060AE" d="M40.383,21.372c-0.77-0.469-1.719-0.699-2.843-0.699c-1.474,0-2.656,0.606-3.541,1.807
		c-0.884,1.201-1.331,2.812-1.331,4.837v10.797h-5.879V15.952h5.879v4.261h0.064c1.079-3.094,3.03-4.641,5.836-4.641
		c0.807,0,1.409,0.099,1.812,0.294L40.383,21.372z"/>
	<path fill="#0060AE" d="M20.668,37.246c-1.583,0.945-3.758,1.408-6.513,1.408c-3.317,0-6.001-1.021-8.067-3.066
		C4.028,33.549,3,30.871,3,27.567c0-3.765,1.108-6.729,3.311-8.894c2.208-2.164,5.153-3.246,8.837-3.246
		c2.404,0,4.246,0.347,5.519,1.052v5.168c-1.489-1.094-3.129-1.648-4.929-1.648c-2.051,0-3.698,0.647-4.935,1.929
		c-1.239,1.287-1.858,3.027-1.858,5.225c0,2.158,0.584,3.856,1.755,5.08c1.166,1.223,2.764,1.829,4.808,1.829
		c1.785,0,3.505-0.559,5.161-1.685v4.874h-0.002L20.668,37.246L20.668,37.246z"/>
</g>
</svg>
